<svg xmlns="http://www.w3.org/2000/svg" version="1.1" viewBox="0.00 0.00 1000.00 1000.00" width="1000.00" height="1000.00">
<g stroke-width="2.00" fill="none" stroke-linecap="butt">
<path stroke="#fbdb82" d="&#10;  M 273.32 295.11&#10;  Q 247.45 295.53 238.00 295.36&#10;  Q 224.97 295.14 217.89 296.16&#10;  C 184.27 301.02 158.96 325.08 151.80 358.16&#10;  Q 150.14 365.82 150.10 382.95&#10;  C 149.97 440.67 150.09 502.66 150.00 593.25&#10;  Q 149.99 597.93 150.34 602.50"/>
<path stroke="#8a93ab" d="&#10;  M 150.34 602.50&#10;  Q 150.26 614.26 150.34 625.94&#10;  C 150.54 651.50 164.62 674.95 186.03 688.43&#10;  Q 203.98 699.74 226.00 700.15&#10;  Q 243.58 700.48 261.67 699.85"/>
<path stroke="#fbdb82" d="&#10;  M 261.67 699.85&#10;  L 273.28 700.15"/>
<path stroke="#8a93ab" d="&#10;  M 273.28 700.15&#10;  Q 272.99 719.03 273.36 724.51&#10;  C 275.78 760.82 298.15 794.51 330.91 811.33&#10;  Q 354.27 823.32 379.02 823.30&#10;  Q 453.94 823.25 717.53 823.34&#10;  Q 736.79 823.35 752.08 820.33&#10;  C 814.11 808.11 860.99 756.54 868.16 693.57&#10;  Q 869.36 683.08 869.36 670.83&#10;  Q 869.39 497.60 869.36 346.75&#10;  Q 869.36 336.92 866.02 329.56"/>
<path stroke="#fbdb82" d="&#10;  M 866.02 329.56&#10;  Q 864.65 320.88 857.17 312.58&#10;  Q 851.46 306.24 845.08 299.67&#10;  Q 784.69 237.43 741.59 193.94&#10;  Q 734.89 187.19 725.37 182.34&#10;  A 5.60 5.36 63.6 0 0 724.10 181.88&#10;  L 719.50 180.87"/>
<path stroke="#8a93ab" d="&#10;  M 719.50 180.87&#10;  Q 713.69 176.72 706.00 176.12&#10;  Q 703.23 175.90 699.50 175.90&#10;  Q 546.68 175.88 391.35 175.86&#10;  Q 370.68 175.86 362.26 177.36&#10;  C 334.97 182.23 311.60 196.85 295.08 218.61&#10;  Q 274.82 245.28 273.58 279.51&#10;  Q 273.30 287.33 273.32 295.11"/>
<path stroke="#8a7b44" d="&#10;  M 719.50 180.87&#10;  C 720.66 182.71 722.25 184.36 723.08 186.14&#10;  Q 725.42 191.13 725.48 196.26&#10;  Q 725.62 208.67 725.69 268.78&#10;  C 725.72 293.39 737.47 313.04 761.75 320.68&#10;  C 768.37 322.76 775.88 322.90 783.50 322.90&#10;  Q 809.15 322.91 848.50 322.98&#10;  Q 858.58 323.00 866.02 329.56"/>
<path stroke="#8a7b44" d="&#10;  M 273.28 700.15&#10;  Q 274.62 700.52 277.00 700.52&#10;  Q 437.98 700.57 452.50 700.68&#10;  Q 460.70 700.74 464.26 699.40&#10;  Q 477.39 694.46 481.35 682.30&#10;  Q 482.90 677.53 482.92 666.03&#10;  Q 483.00 589.77 482.94 495.01&#10;  Q 482.93 488.16 482.18 485.54&#10;  Q 478.23 471.82 465.92 467.58&#10;  Q 461.74 466.14 450.91 466.15&#10;  Q 357.83 466.25 238.51 466.15&#10;  C 222.02 466.14 222.78 444.01 238.50 444.00&#10;  Q 422.19 443.93 457.25 444.15&#10;  C 472.50 444.24 482.70 432.29 482.78 417.47&#10;  Q 482.92 393.58 482.95 383.80&#10;  Q 483.01 365.70 480.95 356.90&#10;  Q 476.59 338.26 465.10 324.41&#10;  Q 446.20 301.62 417.01 296.36&#10;  C 407.62 294.67 398.07 295.12 385.75 295.10&#10;  Q 329.40 295.03 273.32 295.11"/>
<path stroke="#8a7b44" d="&#10;  M 261.67 699.85&#10;  Q 230.53 696.78 205.50 682.78&#10;  Q 179.21 668.08 163.21 640.84&#10;  Q 155.71 628.07 151.82 610.57&#10;  Q 151.46 608.95 151.13 606.54&#10;  Q 150.85 604.49 150.34 602.50"/>
<path stroke="#8a7b44" d="&#10;  M 613.64 555.08&#10;  C 619.02 555.82 621.29 559.20 618.77 564.26&#10;  Q 580.34 641.43 556.54 688.79&#10;  C 554.38 693.09 555.27 698.19 560.77 698.57&#10;  C 563.53 698.77 566.30 696.82 568.39 694.88&#10;  Q 634.10 634.10 762.61 516.61&#10;  Q 766.98 512.61 767.77 510.28&#10;  Q 770.32 502.69 762.68 501.18&#10;  Q 758.79 500.42 733.35 497.76&#10;  C 728.88 497.30 723.59 496.40 720.25 496.05&#10;  Q 710.42 495.02 687.65 492.51&#10;  C 680.37 491.71 674.73 490.15 677.98 481.51&#10;  Q 712.36 390.26 723.17 361.95&#10;  Q 725.64 355.49 720.95 352.90&#10;  C 718.08 351.32 714.77 352.47 712.57 354.56&#10;  Q 693.37 372.81 661.34 402.84&#10;  Q 646.67 416.61 527.40 527.90&#10;  C 523.40 531.63 518.11 535.96 522.78 541.61&#10;  C 524.13 543.25 526.97 543.81 528.99 544.07&#10;  Q 579.21 550.39 613.64 555.08"/>
<path stroke="#8a7b44" d="&#10;  M 407.08 381.15&#10;  A 10.91 10.91 0.0 0 0 396.17 370.24&#10;  L 237.39 370.24&#10;  A 10.91 10.91 0.0 0 0 226.48 381.15&#10;  L 226.48 381.47&#10;  A 10.91 10.91 0.0 0 0 237.39 392.38&#10;  L 396.17 392.38&#10;  A 10.91 10.91 0.0 0 0 407.08 381.47&#10;  L 407.08 381.15"/>
<path stroke="#8a7b44" d="&#10;  M 422.34 528.94&#10;  A 10.94 10.94 0.0 0 0 411.40 518.00&#10;  L 237.44 518.00&#10;  A 10.94 10.94 0.0 0 0 226.50 528.94&#10;  L 226.50 529.24&#10;  A 10.94 10.94 0.0 0 0 237.44 540.18&#10;  L 411.40 540.18&#10;  A 10.94 10.94 0.0 0 0 422.34 529.24&#10;  L 422.34 528.94"/>
<path stroke="#8a7b44" d="&#10;  M 407.03 602.41&#10;  A 10.88 10.88 0.0 0 0 396.15 591.53&#10;  L 237.45 591.53&#10;  A 10.88 10.88 0.0 0 0 226.57 602.41&#10;  L 226.57 602.71&#10;  A 10.88 10.88 0.0 0 0 237.45 613.59&#10;  L 396.15 613.59&#10;  A 10.88 10.88 0.0 0 0 407.03 602.71&#10;  L 407.03 602.41"/>
</g>
<path fill="#fbf3e8" d="&#10;  M 1000.00 0.00&#10;  L 1000.00 1000.00&#10;  L 0.00 1000.00&#10;  L 0.00 0.00&#10;  L 1000.00 0.00&#10;  Z&#10;  M 273.32 295.11&#10;  Q 247.45 295.53 238.00 295.36&#10;  Q 224.97 295.14 217.89 296.16&#10;  C 184.27 301.02 158.96 325.08 151.80 358.16&#10;  Q 150.14 365.82 150.10 382.95&#10;  C 149.97 440.67 150.09 502.66 150.00 593.25&#10;  Q 149.99 597.93 150.34 602.50&#10;  Q 150.26 614.26 150.34 625.94&#10;  C 150.54 651.50 164.62 674.95 186.03 688.43&#10;  Q 203.98 699.74 226.00 700.15&#10;  Q 243.58 700.48 261.67 699.85&#10;  L 273.28 700.15&#10;  Q 272.99 719.03 273.36 724.51&#10;  C 275.78 760.82 298.15 794.51 330.91 811.33&#10;  Q 354.27 823.32 379.02 823.30&#10;  Q 453.94 823.25 717.53 823.34&#10;  Q 736.79 823.35 752.08 820.33&#10;  C 814.11 808.11 860.99 756.54 868.16 693.57&#10;  Q 869.36 683.08 869.36 670.83&#10;  Q 869.39 497.60 869.36 346.75&#10;  Q 869.36 336.92 866.02 329.56&#10;  Q 864.65 320.88 857.17 312.58&#10;  Q 851.46 306.24 845.08 299.67&#10;  Q 784.69 237.43 741.59 193.94&#10;  Q 734.89 187.19 725.37 182.34&#10;  A 5.60 5.36 63.6 0 0 724.10 181.88&#10;  L 719.50 180.87&#10;  Q 713.69 176.72 706.00 176.12&#10;  Q 703.23 175.90 699.50 175.90&#10;  Q 546.68 175.88 391.35 175.86&#10;  Q 370.68 175.86 362.26 177.36&#10;  C 334.97 182.23 311.60 196.85 295.08 218.61&#10;  Q 274.82 245.28 273.58 279.51&#10;  Q 273.30 287.33 273.32 295.11&#10;  Z"/>
<path fill="#18326d" d="&#10;  M 719.50 180.87&#10;  C 720.66 182.71 722.25 184.36 723.08 186.14&#10;  Q 725.42 191.13 725.48 196.26&#10;  Q 725.62 208.67 725.69 268.78&#10;  C 725.72 293.39 737.47 313.04 761.75 320.68&#10;  C 768.37 322.76 775.88 322.90 783.50 322.90&#10;  Q 809.15 322.91 848.50 322.98&#10;  Q 858.58 323.00 866.02 329.56&#10;  Q 869.36 336.92 869.36 346.75&#10;  Q 869.39 497.60 869.36 670.83&#10;  Q 869.36 683.08 868.16 693.57&#10;  C 860.99 756.54 814.11 808.11 752.08 820.33&#10;  Q 736.79 823.35 717.53 823.34&#10;  Q 453.94 823.25 379.02 823.30&#10;  Q 354.27 823.32 330.91 811.33&#10;  C 298.15 794.51 275.78 760.82 273.36 724.51&#10;  Q 272.99 719.03 273.28 700.15&#10;  Q 274.62 700.52 277.00 700.52&#10;  Q 437.98 700.57 452.50 700.68&#10;  Q 460.70 700.74 464.26 699.40&#10;  Q 477.39 694.46 481.35 682.30&#10;  Q 482.90 677.53 482.92 666.03&#10;  Q 483.00 589.77 482.94 495.01&#10;  Q 482.93 488.16 482.18 485.54&#10;  Q 478.23 471.82 465.92 467.58&#10;  Q 461.74 466.14 450.91 466.15&#10;  Q 357.83 466.25 238.51 466.15&#10;  C 222.02 466.14 222.78 444.01 238.50 444.00&#10;  Q 422.19 443.93 457.25 444.15&#10;  C 472.50 444.24 482.70 432.29 482.78 417.47&#10;  Q 482.92 393.58 482.95 383.80&#10;  Q 483.01 365.70 480.95 356.90&#10;  Q 476.59 338.26 465.10 324.41&#10;  Q 446.20 301.62 417.01 296.36&#10;  C 407.62 294.67 398.07 295.12 385.75 295.10&#10;  Q 329.40 295.03 273.32 295.11&#10;  Q 273.30 287.33 273.58 279.51&#10;  Q 274.82 245.28 295.08 218.61&#10;  C 311.60 196.85 334.97 182.23 362.26 177.36&#10;  Q 370.68 175.86 391.35 175.86&#10;  Q 546.68 175.88 699.50 175.90&#10;  Q 703.23 175.90 706.00 176.12&#10;  Q 713.69 176.72 719.50 180.87&#10;  Z&#10;  M 613.64 555.08&#10;  C 619.02 555.82 621.29 559.20 618.77 564.26&#10;  Q 580.34 641.43 556.54 688.79&#10;  C 554.38 693.09 555.27 698.19 560.77 698.57&#10;  C 563.53 698.77 566.30 696.82 568.39 694.88&#10;  Q 634.10 634.10 762.61 516.61&#10;  Q 766.98 512.61 767.77 510.28&#10;  Q 770.32 502.69 762.68 501.18&#10;  Q 758.79 500.42 733.35 497.76&#10;  C 728.88 497.30 723.59 496.40 720.25 496.05&#10;  Q 710.42 495.02 687.65 492.51&#10;  C 680.37 491.71 674.73 490.15 677.98 481.51&#10;  Q 712.36 390.26 723.17 361.95&#10;  Q 725.64 355.49 720.95 352.90&#10;  C 718.08 351.32 714.77 352.47 712.57 354.56&#10;  Q 693.37 372.81 661.34 402.84&#10;  Q 646.67 416.61 527.40 527.90&#10;  C 523.40 531.63 518.11 535.96 522.78 541.61&#10;  C 524.13 543.25 526.97 543.81 528.99 544.07&#10;  Q 579.21 550.39 613.64 555.08&#10;  Z"/>
<path fill="#fbc31b" d="&#10;  M 866.02 329.56&#10;  Q 858.58 323.00 848.50 322.98&#10;  Q 809.15 322.91 783.50 322.90&#10;  C 775.88 322.90 768.37 322.76 761.75 320.68&#10;  C 737.47 313.04 725.72 293.39 725.69 268.78&#10;  Q 725.62 208.67 725.48 196.26&#10;  Q 725.42 191.13 723.08 186.14&#10;  C 722.25 184.36 720.66 182.71 719.50 180.87&#10;  L 724.10 181.88&#10;  A 5.60 5.36 63.6 0 1 725.37 182.34&#10;  Q 734.89 187.19 741.59 193.94&#10;  Q 784.69 237.43 845.08 299.67&#10;  Q 851.46 306.24 857.17 312.58&#10;  Q 864.65 320.88 866.02 329.56&#10;  Z"/>
<path fill="#fbc31b" d="&#10;  M 273.28 700.15&#10;  L 261.67 699.85&#10;  Q 230.53 696.78 205.50 682.78&#10;  Q 179.21 668.08 163.21 640.84&#10;  Q 155.71 628.07 151.82 610.57&#10;  Q 151.46 608.95 151.13 606.54&#10;  Q 150.85 604.49 150.34 602.50&#10;  Q 149.99 597.93 150.00 593.25&#10;  C 150.09 502.66 149.97 440.67 150.10 382.95&#10;  Q 150.14 365.82 151.80 358.16&#10;  C 158.96 325.08 184.27 301.02 217.89 296.16&#10;  Q 224.97 295.14 238.00 295.36&#10;  Q 247.45 295.53 273.32 295.11&#10;  Q 329.40 295.03 385.75 295.10&#10;  C 398.07 295.12 407.62 294.67 417.01 296.36&#10;  Q 446.20 301.62 465.10 324.41&#10;  Q 476.59 338.26 480.95 356.90&#10;  Q 483.01 365.70 482.95 383.80&#10;  Q 482.92 393.58 482.78 417.47&#10;  C 482.70 432.29 472.50 444.24 457.25 444.15&#10;  Q 422.19 443.93 238.50 444.00&#10;  C 222.78 444.01 222.02 466.14 238.51 466.15&#10;  Q 357.83 466.25 450.91 466.15&#10;  Q 461.74 466.14 465.92 467.58&#10;  Q 478.23 471.82 482.18 485.54&#10;  Q 482.93 488.16 482.94 495.01&#10;  Q 483.00 589.77 482.92 666.03&#10;  Q 482.90 677.53 481.35 682.30&#10;  Q 477.39 694.46 464.26 699.40&#10;  Q 460.70 700.74 452.50 700.68&#10;  Q 437.98 700.57 277.00 700.52&#10;  Q 274.62 700.52 273.28 700.15&#10;  Z&#10;  M 407.08 381.15&#10;  A 10.91 10.91 0.0 0 0 396.17 370.24&#10;  L 237.39 370.24&#10;  A 10.91 10.91 0.0 0 0 226.48 381.15&#10;  L 226.48 381.47&#10;  A 10.91 10.91 0.0 0 0 237.39 392.38&#10;  L 396.17 392.38&#10;  A 10.91 10.91 0.0 0 0 407.08 381.47&#10;  L 407.08 381.15&#10;  Z&#10;  M 422.34 528.94&#10;  A 10.94 10.94 0.0 0 0 411.40 518.00&#10;  L 237.44 518.00&#10;  A 10.94 10.94 0.0 0 0 226.50 528.94&#10;  L 226.50 529.24&#10;  A 10.94 10.94 0.0 0 0 237.44 540.18&#10;  L 411.40 540.18&#10;  A 10.94 10.94 0.0 0 0 422.34 529.24&#10;  L 422.34 528.94&#10;  Z&#10;  M 407.03 602.41&#10;  A 10.88 10.88 0.0 0 0 396.15 591.53&#10;  L 237.45 591.53&#10;  A 10.88 10.88 0.0 0 0 226.57 602.41&#10;  L 226.57 602.71&#10;  A 10.88 10.88 0.0 0 0 237.45 613.59&#10;  L 396.15 613.59&#10;  A 10.88 10.88 0.0 0 0 407.03 602.71&#10;  L 407.03 602.41&#10;  Z"/>
<path fill="#fbc31b" d="&#10;  M 618.77 564.26&#10;  C 621.29 559.20 619.02 555.82 613.64 555.08&#10;  Q 579.21 550.39 528.99 544.07&#10;  C 526.97 543.81 524.13 543.25 522.78 541.61&#10;  C 518.11 535.96 523.40 531.63 527.40 527.90&#10;  Q 646.67 416.61 661.34 402.84&#10;  Q 693.37 372.81 712.57 354.56&#10;  C 714.77 352.47 718.08 351.32 720.95 352.90&#10;  Q 725.64 355.49 723.17 361.95&#10;  Q 712.36 390.26 677.98 481.51&#10;  C 674.73 490.15 680.37 491.71 687.65 492.51&#10;  Q 710.42 495.02 720.25 496.05&#10;  C 723.59 496.40 728.88 497.30 733.35 497.76&#10;  Q 758.79 500.42 762.68 501.18&#10;  Q 770.32 502.69 767.77 510.28&#10;  Q 766.98 512.61 762.61 516.61&#10;  Q 634.10 634.10 568.39 694.88&#10;  C 566.30 696.82 563.53 698.77 560.77 698.57&#10;  C 555.27 698.19 554.38 693.09 556.54 688.79&#10;  Q 580.34 641.43 618.77 564.26&#10;  Z"/>
<rect fill="#18326d" x="226.48" y="370.24" width="180.60" height="22.14" rx="10.91"/>
<rect fill="#18326d" x="226.50" y="518.00" width="195.84" height="22.18" rx="10.94"/>
<rect fill="#18326d" x="226.57" y="591.53" width="180.46" height="22.06" rx="10.88"/>
<path fill="#18326d" d="&#10;  M 261.67 699.85&#10;  Q 243.58 700.48 226.00 700.15&#10;  Q 203.98 699.74 186.03 688.43&#10;  C 164.62 674.95 150.54 651.50 150.34 625.94&#10;  Q 150.26 614.26 150.34 602.50&#10;  Q 150.85 604.49 151.13 606.54&#10;  Q 151.46 608.95 151.82 610.57&#10;  Q 155.71 628.07 163.21 640.84&#10;  Q 179.21 668.08 205.50 682.78&#10;  Q 230.53 696.78 261.67 699.85&#10;  Z"/>
</svg>